<svg width="899" height="171" viewBox="0 0 899 171" fill="none" xmlns="http://www.w3.org/2000/svg">
<path fill-rule="evenodd" clip-rule="evenodd" d="M37.33 59.9L0 62.23L11.72 70.01C20.87 76.08 31.92 78.61 42.8 77.1L54.29 75.51C60.13 74.7 63.65 68.61 61.42 63.15L57.05 52.41C52.91 42.24 45.2 33.92 35.36 29.04L22.77 22.78L39.41 56.27C40.21 57.88 39.11 59.78 37.32 59.89L37.33 59.9Z" fill="#05421F"/>
<path fill-rule="evenodd" clip-rule="evenodd" d="M115.71 75.52L127.2 77.11C138.08 78.61 149.13 76.09 158.28 70.02L170 62.24L132.67 59.91C130.88 59.8 129.78 57.89 130.58 56.29L147.22 22.8L134.63 29.06C124.79 33.95 117.08 42.26 112.94 52.43L108.57 63.17C106.35 68.63 109.87 74.72 115.7 75.53L115.71 75.52Z" fill="#05421F"/>
<path fill-rule="evenodd" clip-rule="evenodd" d="M77.87 53.67C81.49 58.32 88.52 58.32 92.14 53.67L99.26 44.51C106 35.84 109.34 25.01 108.66 14.04L107.78 0L87.1 31.16C86.11 32.66 83.91 32.66 82.92 31.16L62.22 0.01L61.34 14.05C60.65 25.01 64 35.85 70.74 44.52L77.86 53.68L77.87 53.67Z" fill="#05421F"/>
<path fill-rule="evenodd" clip-rule="evenodd" d="M132.67 110.12L170 107.79L158.28 100.01C149.13 93.94 138.08 91.41 127.2 92.92L115.71 94.51C109.87 95.32 106.35 101.41 108.58 106.87L112.95 117.61C117.09 127.78 124.8 136.1 134.64 140.98L147.23 147.24L130.59 113.75C129.79 112.14 130.89 110.24 132.68 110.13L132.67 110.12Z" fill="#05421F"/>
<path fill-rule="evenodd" clip-rule="evenodd" d="M54.29 94.5L42.8 92.91C31.92 91.41 20.87 93.93 11.72 100L0 107.78L37.33 110.11C39.12 110.22 40.22 112.13 39.42 113.73L22.78 147.22L35.37 140.96C45.21 136.07 52.92 127.76 57.06 117.59L61.43 106.85C63.65 101.39 60.13 95.3 54.3 94.49L54.29 94.5Z" fill="#05421F"/>
<path fill-rule="evenodd" clip-rule="evenodd" d="M92.1301 116.35C88.5101 111.7 81.4801 111.7 77.8601 116.35L70.7401 125.51C64.0001 134.18 60.6601 145.01 61.3401 155.98L62.2201 170.02L82.9001 138.86C83.8901 137.36 86.0901 137.36 87.0801 138.86L107.76 170.02L108.64 155.98C109.33 145.02 105.98 134.18 99.2401 125.51L92.1201 116.35H92.1301Z" fill="#05421F"/>
<path d="M191.31 109.4V61.83H204.74V69.02C206.02 66.65 207.62 64.78 209.53 63.41C211.45 62.04 213.62 61.35 216.05 61.35H221.9V73.24H214.71C212.34 73.24 210.43 73.85 208.96 75.06C207.49 76.27 206.42 78.08 205.75 80.48C205.08 82.88 204.74 85.8 204.74 89.26V109.4H191.31Z" fill="#05421F"/>
<path d="M251.57 110.55C246.65 110.55 242.3 109.51 238.53 107.43C234.76 105.35 231.82 102.48 229.71 98.8C227.6 95.12 226.54 90.89 226.54 86.09C226.54 81.29 227.58 76.79 229.66 72.95C231.74 69.11 234.66 66.11 238.44 63.93C242.21 61.76 246.59 60.67 251.58 60.67C256.57 60.67 260.5 61.69 264.14 63.74C267.78 65.79 270.63 68.58 272.68 72.13C274.73 75.68 275.75 79.72 275.75 84.26V86.42C275.75 87.22 275.69 88.04 275.56 88.87H236.14V80.81H262.13C261.94 78 260.87 75.74 258.92 74.05C256.97 72.36 254.56 71.51 251.68 71.51C249.51 71.51 247.51 71.99 245.69 72.95C243.87 73.91 242.43 75.36 241.37 77.31C240.32 79.26 239.79 81.74 239.79 84.74V87.52C239.79 89.95 240.29 92.08 241.28 93.9C242.27 95.72 243.64 97.13 245.4 98.12C247.16 99.11 249.19 99.61 251.49 99.61C253.79 99.61 255.61 99.11 257.15 98.12C258.69 97.13 259.87 95.83 260.7 94.24H274.41C273.51 97.31 272 100.07 269.85 102.54C267.71 105 265.09 106.95 261.99 108.39C258.89 109.83 255.42 110.55 251.58 110.55H251.57Z" fill="#05421F"/>
<path d="M295.13 109.4L277.77 61.83H291.87L303.38 96.74L314.79 61.83H328.79L311.43 109.4H295.13Z" fill="#05421F"/>
<path d="M355.56 110.55C350.64 110.55 346.29 109.51 342.52 107.43C338.75 105.35 335.81 102.48 333.7 98.8C331.59 95.12 330.53 90.89 330.53 86.09C330.53 81.29 331.57 76.79 333.65 72.95C335.73 69.11 338.65 66.11 342.43 63.93C346.2 61.76 350.58 60.67 355.57 60.67C360.56 60.67 364.49 61.69 368.13 63.74C371.77 65.79 374.62 68.58 376.67 72.13C378.72 75.68 379.74 79.72 379.74 84.26V86.42C379.74 87.22 379.68 88.04 379.55 88.87H340.13V80.81H366.12C365.93 78 364.86 75.74 362.91 74.05C360.96 72.36 358.55 71.51 355.67 71.51C353.5 71.51 351.5 71.99 349.68 72.95C347.86 73.91 346.42 75.36 345.36 77.31C344.31 79.26 343.78 81.74 343.78 84.74V87.52C343.78 89.95 344.28 92.08 345.27 93.9C346.26 95.72 347.63 97.13 349.39 98.12C351.15 99.11 353.18 99.61 355.48 99.61C357.78 99.61 359.6 99.11 361.14 98.12C362.68 97.13 363.86 95.83 364.69 94.24H378.4C377.5 97.31 375.99 100.07 373.84 102.54C371.7 105 369.08 106.95 365.98 108.39C362.88 109.83 359.41 110.55 355.57 110.55H355.56Z" fill="#05421F"/>
<path d="M387.32 109.4V61.83H400.75V68.83C402.28 66.34 404.38 64.36 407.03 62.88C409.68 61.41 412.8 60.67 416.38 60.67C422.39 60.67 426.99 62.57 430.19 66.38C433.39 70.18 434.99 75.67 434.99 82.83V109.4H421.56V84.08C421.56 80.18 420.78 77.19 419.21 75.11C417.64 73.03 415.17 71.99 411.78 71.99C408.58 71.99 405.95 73.13 403.87 75.4C401.79 77.67 400.75 80.82 400.75 84.85V109.4H387.32Z" fill="#05421F"/>
<path d="M461.23 110.55C455.73 110.55 451.41 108.65 448.28 104.84C445.15 101.04 443.58 95.55 443.58 88.39V61.82H456.91V87.14C456.91 91.04 457.64 94.03 459.12 96.11C460.59 98.19 462.8 99.23 465.74 99.23C468.94 99.23 471.41 98.1 473.17 95.82C474.93 93.55 475.81 90.4 475.81 86.37V61.82H489.24V109.39H475.81V102.58C474.4 105.01 472.5 106.94 470.1 108.38C467.7 109.82 464.74 110.54 461.23 110.54V110.55Z" fill="#05421F"/>
<path d="M554.84 110.55C549.92 110.55 545.57 109.48 541.8 107.34C538.03 105.2 535.07 102.26 532.93 98.52C530.79 94.78 529.72 90.48 529.72 85.62C529.72 80.76 530.79 76.46 532.93 72.72C535.07 68.98 538.03 66.04 541.8 63.9C545.57 61.76 549.92 60.69 554.84 60.69C560.98 60.69 566.16 62.31 570.38 65.53C574.6 68.76 577.32 73.22 578.53 78.91H564.34C563.76 76.87 562.61 75.23 560.89 74.02C559.16 72.81 557.12 72.2 554.75 72.2C552.64 72.2 550.72 72.74 549 73.83C547.27 74.92 545.92 76.45 544.92 78.43C543.93 80.41 543.43 82.81 543.43 85.62C543.43 88.43 543.92 90.77 544.92 92.81C545.91 94.86 547.27 96.42 549 97.51C550.73 98.6 552.64 99.14 554.75 99.14C557.11 99.14 559.16 98.55 560.89 97.37C562.62 96.19 563.77 94.51 564.34 92.33H578.53C577.38 97.83 574.68 102.24 570.43 105.57C566.18 108.9 560.98 110.56 554.85 110.56L554.84 110.55Z" fill="#05421F"/>
<path d="M601.53 110.55C598.01 110.55 594.98 109.91 592.42 108.63C589.86 107.35 587.9 105.63 586.52 103.45C585.14 101.28 584.46 98.88 584.46 96.26C584.46 91.34 586.23 87.52 589.78 84.8C593.33 82.08 597.98 80.72 603.74 80.72C606.49 80.72 608.84 80.91 610.79 81.3C612.74 81.68 614.32 82.07 615.54 82.45V80.15C615.54 77.02 614.63 74.75 612.81 73.34C610.99 71.93 608.67 71.23 605.86 71.23C603.94 71.23 602.22 71.61 600.68 72.38C599.14 73.15 598.15 74.55 597.71 76.6H585.15C585.53 73.21 586.67 70.33 588.55 67.97C590.44 65.61 592.88 63.8 595.89 62.55C598.89 61.3 602.22 60.68 605.86 60.68C613.02 60.68 618.66 62.36 622.79 65.72C626.91 69.08 628.98 73.89 628.98 80.15V90.03C628.98 92.46 629.12 94.27 629.41 95.45C629.7 96.63 630.16 97.39 630.8 97.7C631.44 98.02 632.27 98.18 633.29 98.18H633.67V109.4H630.7C627.25 109.4 624.37 108.97 622.07 108.11C619.77 107.25 618.07 105.57 616.99 103.07C615.33 105.24 613.19 107.04 610.56 108.44C607.94 109.85 604.93 110.55 601.54 110.55H601.53ZM604.69 100.39C606.54 100.39 608.13 99.99 609.44 99.19C610.75 98.39 611.85 97.27 612.75 95.83C613.64 94.39 614.32 92.78 614.76 90.99C613.48 90.61 611.99 90.24 610.3 89.89C608.61 89.54 606.9 89.36 605.17 89.36C603.19 89.36 601.49 89.86 600.09 90.85C598.68 91.84 597.98 93.26 597.98 95.12C597.98 96.65 598.59 97.92 599.8 98.91C601.01 99.9 602.64 100.4 604.69 100.4V100.39Z" fill="#05421F"/>
<path d="M640.68 109.4V61.83H654.11V69.02C655.39 66.65 656.99 64.78 658.9 63.41C660.82 62.04 662.99 61.35 665.42 61.35H671.27V73.24H664.08C661.71 73.24 659.8 73.85 658.33 75.06C656.86 76.27 655.79 78.08 655.12 80.48C654.45 82.88 654.11 85.8 654.11 89.26V109.4H640.68Z" fill="#05421F"/>
<path d="M706.78 110.55C703.26 110.55 700.21 109.91 697.62 108.63C695.03 107.35 692.9 105.56 691.24 103.26V109.4H677.81V40.35H691.24V68.35C692.78 66.3 694.77 64.51 697.24 62.98C699.7 61.45 702.88 60.68 706.78 60.68C711.19 60.68 715.16 61.77 718.67 63.94C722.19 66.11 724.97 69.09 727.01 72.86C729.05 76.63 730.08 80.92 730.08 85.71C730.08 90.5 729.06 94.69 727.01 98.47C724.96 102.24 722.18 105.2 718.67 107.34C715.15 109.48 711.19 110.55 706.78 110.55ZM703.61 98.85C706.1 98.85 708.32 98.27 710.28 97.12C712.23 95.97 713.75 94.4 714.84 92.42C715.93 90.44 716.47 88.2 716.47 85.71C716.47 83.22 715.93 80.87 714.84 78.85C713.75 76.84 712.23 75.25 710.28 74.1C708.33 72.95 706.11 72.37 703.61 72.37C701.11 72.37 698.91 72.95 696.99 74.1C695.07 75.25 693.57 76.82 692.48 78.8C691.39 80.78 690.85 83.05 690.85 85.61C690.85 88.17 691.39 90.44 692.48 92.42C693.57 94.4 695.07 95.97 696.99 97.12C698.91 98.27 701.11 98.85 703.61 98.85Z" fill="#05421F"/>
<path d="M761.14 110.55C756.34 110.55 752.01 109.49 748.14 107.38C744.27 105.27 741.2 102.33 738.93 98.56C736.66 94.79 735.52 90.47 735.52 85.61C735.52 80.75 736.65 76.36 738.93 72.61C741.2 68.87 744.28 65.94 748.18 63.83C752.08 61.72 756.39 60.66 761.13 60.66C765.87 60.66 770.26 61.72 774.13 63.83C778 65.94 781.07 68.87 783.34 72.61C785.61 76.35 786.75 80.68 786.75 85.61C786.75 90.54 785.61 94.79 783.34 98.56C781.07 102.33 778 105.27 774.13 107.38C770.26 109.49 765.93 110.55 761.13 110.55H761.14ZM761.14 98.95C763.31 98.95 765.3 98.46 767.09 97.46C768.88 96.47 770.3 94.98 771.36 93C772.41 91.02 772.94 88.56 772.94 85.62C772.94 82.68 772.4 80.22 771.31 78.24C770.22 76.26 768.8 74.77 767.04 73.78C765.28 72.79 763.35 72.29 761.24 72.29C759.13 72.29 757.08 72.79 755.29 73.78C753.5 74.77 752.06 76.24 750.97 78.19C749.88 80.14 749.34 82.62 749.34 85.62C749.34 88.62 749.87 91.02 750.92 93C751.97 94.98 753.4 96.47 755.19 97.46C756.98 98.45 758.96 98.95 761.14 98.95Z" fill="#05421F"/>
<path d="M794.37 109.4V61.83H807.8V68.83C809.33 66.34 811.43 64.36 814.08 62.88C816.73 61.41 819.85 60.67 823.43 60.67C829.44 60.67 834.04 62.57 837.24 66.38C840.44 70.18 842.04 75.67 842.04 82.83V109.4H828.61V84.08C828.61 80.18 827.83 77.19 826.26 75.11C824.69 73.03 822.22 71.99 818.83 71.99C815.63 71.99 813 73.13 810.92 75.4C808.84 77.67 807.8 80.82 807.8 84.85V109.4H794.37Z" fill="#05421F"/>
<path d="M874.38 110.55C869.46 110.55 865.11 109.51 861.34 107.43C857.57 105.35 854.63 102.48 852.52 98.8C850.41 95.12 849.35 90.89 849.35 86.09C849.35 81.29 850.39 76.79 852.47 72.95C854.55 69.11 857.47 66.11 861.25 63.93C865.02 61.76 869.4 60.67 874.39 60.67C879.38 60.67 883.31 61.69 886.95 63.74C890.59 65.79 893.44 68.58 895.49 72.13C897.54 75.68 898.56 79.72 898.56 84.26V86.42C898.56 87.22 898.5 88.04 898.37 88.87H858.95V80.81H884.94C884.75 78 883.68 75.74 881.73 74.05C879.78 72.36 877.37 71.51 874.49 71.51C872.32 71.51 870.32 71.99 868.5 72.95C866.68 73.91 865.24 75.36 864.18 77.31C863.13 79.26 862.6 81.74 862.6 84.74V87.52C862.6 89.95 863.1 92.08 864.09 93.9C865.08 95.72 866.45 97.13 868.21 98.12C869.97 99.11 872 99.61 874.3 99.61C876.6 99.61 878.42 99.11 879.96 98.12C881.5 97.13 882.68 95.83 883.51 94.24H897.22C896.32 97.31 894.81 100.07 892.66 102.54C890.52 105 887.9 106.95 884.8 108.39C881.7 109.83 878.23 110.55 874.39 110.55H874.38Z" fill="#05421F"/>
</svg>
